<svg xmlns="http://www.w3.org/2000/svg" viewBox="0 0 430 430">
  <defs>
    <style>
      .cls-1 {
        isolation: isolate;
      }

      .cls-2, .cls-3 {
        fill: #ebe6ef;
      }

      .cls-3 {
        mix-blend-mode: multiply;
        opacity: 0.5;
      }

      .cls-4 {
        fill: #4bb3fd;
      }

      .cls-5 {
        fill: #121331;
      }
    </style>
  </defs>
  <g class="cls-1">
    <g id="Warstwa_1" data-name="Warstwa 1">
      <g>
        <g>
          <rect class="cls-2" x="27" y="54.94" width="376" height="274" rx="19.43"/>
          <path class="cls-3" d="M39.89,309.51V74.37A19.43,19.43,0,0,1,59.32,54.94H46.43A19.43,19.43,0,0,0,27,74.37V309.51a19.43,19.43,0,0,0,19.43,19.43H59.32A19.43,19.43,0,0,1,39.89,309.51Z"/>
          <path class="cls-2" d="M267.17,375.06l-19.94-17.17-7.59-29.05H190.36l-7.59,29.05-19.94,17.17Z"/>
          <polygon class="cls-3" points="194.14 358.09 201.79 328.84 190.36 328.84 182.77 357.89 162.83 375.06 174.43 375.06 194.14 358.09"/>
          <rect class="cls-4" x="52.9" y="80.85" width="324.19" height="189.08"/>
        </g>
        <g>
          <path class="cls-5" d="M383.57,51.44H46.43A23,23,0,0,0,23.5,74.37V309.51a23,23,0,0,0,22.93,22.93H185.8L179.66,356l-19.11,16.46a3.5,3.5,0,0,0,2.28,6.15H267.17a3.5,3.5,0,0,0,2.28-6.15L250.34,356l-6.14-23.51H383.57a23,23,0,0,0,22.93-22.93V74.37A23,23,0,0,0,383.57,51.44ZM243.85,358.78a3.51,3.51,0,0,0,1.1,1.77l12.79,11H172.26l12.79-11a3.51,3.51,0,0,0,1.1-1.77L193,332.44H237ZM399.5,309.51a16,16,0,0,1-15.93,15.93H240.41a3.32,3.32,0,0,0-.77-.1H190.36a3.32,3.32,0,0,0-.77.1H46.43A15.94,15.94,0,0,1,30.5,309.51V74.37A16,16,0,0,1,46.43,58.44H383.57A16,16,0,0,1,399.5,74.37Z"/>
          <path class="cls-5" d="M377.1,77.35H52.9a3.5,3.5,0,0,0-3.5,3.5V269.93a3.5,3.5,0,0,0,3.5,3.5H377.1a3.5,3.5,0,0,0,3.5-3.5V80.85A3.5,3.5,0,0,0,377.1,77.35Zm-3.5,189.08H56.4V84.35H373.6Z"/>
        </g>
        <path class="cls-5" d="M226.55,299.53A11.55,11.55,0,1,1,215,288,11.55,11.55,0,0,1,226.55,299.53Z"/>
      </g>
    </g>
  </g>
</svg>
