<svg xmlns="http://www.w3.org/2000/svg" viewBox="0 0 400 400" height="999" width="999"><g transform="matrix(2,0,0,2,0,0)"><g><path d="M144.08,177.56c.37.46.47.7.13,1a21.36,21.36,0,0,0-4.4,3.89c-1.78,2.27-1.43,6.39-6.07,8.72a7.85,7.85,0,0,1-5.79,1.15c-.77-.15-1.09-1.15-.66-1,2.75.74,5.08-.39,7.5-1.9,1.75-1.09,2.5-3.59,3.14-5.52,1.17-3.54,3.2-4.34,5.7-6.6C143.8,177.11,143.91,177.34,144.08,177.56Z" fill="#ffffff"/><path d="M133.8,181.23a5.16,5.16,0,0,0-3.33-.32c-.47.07-.66-.51-.11-.81a4.72,4.72,0,0,1,3.12,0C134.34,180.08,134.35,181.56,133.8,181.23Z" fill="#ffffff"/><path d="M133.87,182.17c-.13,1.24-.9-.13-3,.26-.24,0-1.12.19-1.12,0s.05-.56.35-.71C131,181.19,133.93,181.26,133.87,182.17Z" fill="#ffffff"/><path d="M133.2,183.26a.51.51,0,0,1,.18.81c-.22.26-1.26-.27-2.23-.21-1.36.11-1.43.23-1.49-.09a.48.48,0,0,1,.4-.64,7.63,7.63,0,0,1,1.5-.21A6.14,6.14,0,0,1,133.2,183.26Z" fill="#ffffff"/><path d="M69.66,179.54a5.55,5.55,0,0,1,.19,2c-.11.62-1,.62-1,.24a7.37,7.37,0,0,0-.47-3.31c-.19-.58.49-.65.68-.35A2.94,2.94,0,0,1,69.66,179.54Z" fill="#ffffff"/><path d="M68.36,181.42c-.09.71-1.09.58-1,.13a5.54,5.54,0,0,0-.36-2.86c-.32-.79-.53-.93-.15-1a.84.84,0,0,1,.85.32A7,7,0,0,1,68.36,181.42Z" fill="#ffffff"/><path d="M66.43,178.75a4.06,4.06,0,0,1,.32,2.35c-.1.32-.51.43-1,.28-.74-.22.09-1.53-1.3-3.42-.11-.15.17-.4.57-.38A1.49,1.49,0,0,1,66.43,178.75Z" fill="#ffffff"/><path d="M65.75,186.42c4.08,4,9,5.24,8.78,7.65-.13,1.22-4.37-1.8-4.93-2.37A76.84,76.84,0,0,0,63.14,186c-3-2.14-5.68-3.83-7.37-7.18-.21-.43.24-.77.64-.62C58.28,178.88,59.81,180.68,65.75,186.42Z" fill="#ffffff"/><path d="M76,192.34c-1.07,2.3-.29.34-2.57-1.19-5.55-3.79-5.16-3.08-11.52-9.3-2.52-2.48-4.57-4.42-6.11-4.34.67-1.66,1.39-.91,2.78-.08,4.31,2.58,6.76,7.78,11.9,10.53C71.86,188.71,75.41,191.21,76,192.34Z" fill="#ffffff"/><path d="M79,182.45c4.35-6.19,3.24-5.09,4.38-4.47-.92,1.5,0-.32-3.51,4.88-.21.32-.15.49-.53.44C78.61,183.26,78.18,183.58,79,182.45Z" fill="#ffffff"/><path d="M81.26,175.93c1.06,1.72,2-.47-1.86,5.13-1.77,2.56-1.49,2.24-2.16,2.31a1.07,1.07,0,0,1-.79-.21c-.57-.48-.7.08,3.74-6.33C80.88,175.83,81,175.55,81.26,175.93Z" fill="#ffffff"/><path d="M81.15,173.3c.9.82,3.57,2.78,3.19,3.32-.54.74-.62,1-.77.79A5.89,5.89,0,0,0,82.22,176c-.34-.22-.55-1-1.68-1.61-1.31-.72-1.27-1.32-2.38-1.56-.38-.08-.53-.14-.4-.36.42-.7.38-.85.7-.81A5,5,0,0,1,81.15,173.3Z" fill="#ffffff"/><path d="M80.17,175c.45.32.54.11-2.09,4-.26.36-2.14,3.12-2.33,3.33-.17-.17-.32-.45-.13-.6a3.24,3.24,0,0,0,.9-3.12c0-.15.06-.21.25-.51C79.66,173.77,78.51,173.78,80.17,175Z" fill="#ffffff"/><path d="M78.59,173.71c.25.22-2.24,4.38-2.5,4-.7-1-1.09-.73-.88-1.07a23.59,23.59,0,0,1,2.16-3.44A3.52,3.52,0,0,1,78.59,173.71Z" fill="#ffffff"/><path d="M131.37,172.43c-1.39.79-.73,1.39-3.19-1.5s-1.71-1.43-.66-2.65C127.73,168.05,131.22,172.21,131.37,172.43Z" fill="#ffffff"/><path d="M137.22,170.89c.6.9.45.49.62,1-.28,1.32-.08,1.15-2.18-1.78-3-4.16-2.6-3.37-3.07-4.23-1-1.79-1.69-1.07-.39-2C132.5,163.67,132.15,163.32,137.22,170.89Z" fill="#ffffff"/><path d="M137.29,173.3c.14.13.08.26,0,.39-1,1.07-.92.26-2.65-1.84-5-6.07-5.08-5.47-4.65-5.94s.7-.77,1.06-1.11C131.37,165.14,136.83,172.9,137.29,173.3Z" fill="#ffffff"/><path d="M135.45,174c.3.39.55.62.25.68-.57.13-.42-.7-1.11-1.49-.89-1-.79-1-1.83-1.07-.39.06-.71.17-.84,0-3.46-4.08-3.86-4.1-3.65-4.36,1.41-1.7.41-1.77,4.46,2.8A28.15,28.15,0,0,1,135.45,174Z" fill="#ffffff"/><path d="M131.24,161.92c.75,1.13,1,1,.32,1.64-.53.47-1.13,1-1.56,1.41a26.39,26.39,0,0,1-2.48,2.48,3,3,0,0,1-1.52.92c-.08,0-.15,0-.17-.07-.85-.85-.87-.83-.66-.94a12.46,12.46,0,0,0,3.25-2.79c.9-1,1.77-1.91,2.24-2.44S131.15,161.77,131.24,161.92Z" fill="#ffffff"/><path d="M119.53,102.69c.56.45.53.38.43.51-.9,1.11-1,1.3-1.07,1.26-.32-.28-.58-.41-.32-.73A7.79,7.79,0,0,1,119.53,102.69Z" fill="#ffffff"/><path d="M118.74,101.66c.36.86.92,0-.66,1.8-.11.1-.15.1-.24,0-.56-.77-.72-.35.54-1.61A1.39,1.39,0,0,1,118.74,101.66Z" fill="#ffffff"/><path d="M118.33,101.23c-.79.6-1.17,1.24-1.39,1s-.32-.4-.06-.73.39-.6.77-.7A.56.56,0,0,1,118.33,101.23Z" fill="#ffffff"/><path d="M99.15,95.78c.23.39,1.19,2.08.53,2-2.09-.25-1.94.24-1.22-1.73a1.66,1.66,0,0,1,.22-.3C98.91,95.42,98.93,95.42,99.15,95.78Z" fill="#ffffff"/><path d="M140.15,172.6c2.07,1.28,3.14,4.1,2.84,4.34-1.64,1.34-1.64,1.47-1.82,1.19C139.89,175.89,139.89,173,140.15,172.6Z" fill="#ffccce"/><path d="M140.19,178.5c1,.64.11.17-1.41,2.28-2.22,3.08-2.14,7.05-2.48,3.64-.26-2.62,0-3.85,1.95-5.41A3.76,3.76,0,0,1,140.19,178.5Z" fill="#ffccce"/><path d="M139.15,81.19c1.28,5.35-.21,3.92-3.15,8.57a10.49,10.49,0,0,1-2.58,3.14c-.87.73-10.34,10.52-10.73,10.32-2.56-1.28-1.75.56-3.5-1.9-.13-.17-.28-.39-.43-.62s9-14.91,9.85-16.26c1-1.67.71-1.92,0-3.76,0-.11,0-.15.11-.17,4.31-.63,4.27-1.58,8.85-3C138.25,77.39,138.06,76.66,139.15,81.19Z" fill="#e5b39e"/><path d="M139.47,172.39a10.82,10.82,0,0,0,.79,5.51,4.47,4.47,0,0,0-4.38,3.1c-1,2.39.27,5.42.06,6-.36.94-.88-.92-2.56-1.19a9.22,9.22,0,0,0-3.55-.32c-.43,0-.13-.35-.09-.52s0-.32.2-.38a3.8,3.8,0,0,1,1.3-.11c1.83,0,2.38.71,2.71-.06s-.1-1,.17-1.33c.52-.64.17-1.32.37-1.54a1.32,1.32,0,0,0-.73-2,5.21,5.21,0,0,0-2.61-.23c-.36.13-.06-.54-.53-1.37s-.68-.53-1.65-1.71c-.25-.32-.29-.64.75-1.71a4.68,4.68,0,0,1,3-1.62c1-.26,1.81,1.75,2.07,2.84.11.45,0,.92.32,1.15a.21.21,0,0,0,.36-.17c0-.36.22-.72.09-1.11s2.84-.32,3-3.84a1.46,1.46,0,0,0-.49-1C137.4,170.05,140,169.26,139.47,172.39Z" fill="#c5cdf3"/><path d="M134.76,187.41c.74.75,1,.59-2.2,2.41a7.08,7.08,0,0,1-5.19.81c-2.11-.36,1-4.36,1.82-4.44a6.44,6.44,0,0,1,3.16.11A3.22,3.22,0,0,1,134.76,187.41Z" fill="#ffccce"/><path d="M129.7,152.81c.68,1.33,3,3.57,2.65,3.89a38.8,38.8,0,0,0-3.87,3.93c-3.72,5.09-3.72,3.59-5.42,5.28a11.78,11.78,0,0,1-2,1.48,1.91,1.91,0,0,1-1.17.21c-1.65,0-1-.26-2.27-2.16s-2.86-5.9-3.78-7c-1.37-1.63-1.43-1.22-2.29-2.63-1.34-2.22-1.11-4.13-3.22-5-.84-.34-3.29-2.86-2.87-3.63.84-1.48,1.09-2,.37-3.59-.41-.9.79-2.55,1.49-3.23a20.77,20.77,0,0,0,2.76-2.41c3-2.93,6.15-12.42,6.37-11.88,2.54,6.06.72,10.08,3.46,10.66a2.07,2.07,0,0,1,1.49,2.58c-.68,2.82.69,1.37,1.63,2.76a2.51,2.51,0,0,1,.64,2.31C123.21,147.62,127.32,148.16,129.7,152.81Z" fill="#ff9c9f"/><path d="M128.48,161.92c1.69-2.46,1.37-2.08,2.27-.79-.15.29-5.69,6.47-6.33,5.59-.21-.3-.49-.55-.32-.68A14,14,0,0,0,128.48,161.92Z" fill="#d6ad9e"/><path d="M128.5,19.08c1.14.28.82,2.35-1,2.24-.7,0-.53.43-.26.68a.72.72,0,0,1,.22.37,1.59,1.59,0,0,1-1.75,1.79c-.6-.1-1.29-.57-1.93-.43-.36.09-.64.28-1,.9-.71,1.26-.66,1.65-1.26,2.25-1.16,1.17-.6,1.26-1.11,1.32-2.33.34-2.31,2.2-3.1,1.67s.79-.73.45-2c-.22-.77.28-1.09.92-1.75.49-.49,0-.84-.32-1.18s.19-1.2.51-1.41c.64-.45.3-1.13-.26-1.71-.7-.75-.08-1.3.13-1.86.13-.32,0-.53-.36-.47a2.45,2.45,0,0,0-.41.11c-.66.15-1.81-.26-1.62-.92.13-.38.15-.83-.22-1s-.36,1-1.94.45c-.56-.2-.41-.73-.43-1a.32.32,0,0,0-.34-.32.92.92,0,0,0-.41.22c-1,.72-1.09-.69-1.64-.47s.28.79-.54,1.41c-.49.38-1.3.06-1.73-.26s-.55-2-1.19-.7-2.08,1.06-2.14,0c0-.56-.19-.77-.81-.26-.86.7-1.86,0-1.73-.41a1.84,1.84,0,0,1,.7-1c1-1-2-.07-1.64-2.2.19-1,1.17-.86,1.47-.92a.36.36,0,0,0,.22-.62c-.6-.6,0-1.73.77-1.93s1.6.73,1.3-.57c-.56-2.48,2.48-3.4,3.29-1.78.26.52.66.3.7-.17.22-1.92,2-2,2.68-.17.1.3.51.43.66,0,.32-.85.57-1.17,1.19-1.34a1.63,1.63,0,0,1,2.29,1.13c.06.19-.11.58-.15.77-.13.6.45.73.71.41s1-.58,1.81,0c.11.08.17.53.26.68.32.62.64-.06,1.49-.28a1.51,1.51,0,0,1,1.71,2.12c0,.13-.36.3-.08.6a.53.53,0,0,0,.62,0,1.38,1.38,0,0,1,2.2,1.22,1.91,1.91,0,0,1-.26,1.11c0,.26.41.28.56.15a1.36,1.36,0,0,1,1.75.41c.41.47.09.9-.24,1.32-.17.22-.21.58.26.5s1.13.17,1.11.72a2.78,2.78,0,0,1-.6,1.65C127.73,18.67,127.84,18.86,128.5,19.08Z" fill="#897466"/><path d="M126.05,87c.21.28,0,.28-.77,1.69-.3.59-.52.47-1.11.47-3.73.3-10.77-10.94-12.57-14.23-2.35-4.29-2.54-4.7-1.64-5.68s2.09.08,3.05.66c1.62,1,3,3.42,4.3,5.19A27.45,27.45,0,0,1,120,78.37C121.84,81.34,123.88,84.22,126.05,87Z" fill="#d3ffcf"/><path d="M124,89.67c.32,0,.67,0,.5.2-.54.79-.58,1-1.16,1-2.86-.06-8-7.18-9.57-9.55-.23-.34,0-1.93.28-1.47,3.16,4.53,1.56,2.65,4.93,6.3C120.18,87.4,121.27,89.48,124,89.67Z" fill="#ffffff"/><path d="M123.18,91.38c.15,0,.15.09.09.22a1.11,1.11,0,0,1-.77.68,19,19,0,0,1-3.59,1.13c-3.16.73-3.87.52-5.49-1.15-1.28-1.28-2.24-3.55-3-5.11-2.23-4.53-7.43-12.86-4.19-15.68.6-.51,1.79-1.86,1.67-1.13-.39,2.5,3.65,7.8,3.52,8.65-.11.56-.28,1.78.19,2.12a38.37,38.37,0,0,1-.53,4c-.11.6.71.85,1.11.83.94,0,1.28.11,1.22-.62-.19-1.6,0-2.18-.21-3.69C113.08,80.74,119.07,90.89,123.18,91.38Z" fill="#d3ffcf"/><path d="M122.91,104.55c.7,0,.55,1.11-.15,1.08S122.41,104.55,122.91,104.55Z" fill="#c5cdf3"/><path d="M113.5,93.26c3,2.8,7.33-.19,8.76-.1-.23,1-1.36,2.3-3.56,6.19-.82,1.46-.39-.08-2.4,1.8-.62.54-1.42-.38-3.93.94-1.24.66-.64.38-1.66.23a13.87,13.87,0,0,1-3.85-.68c-2.16-.79-5-1.13-5.53-2.22-1.29-2.46-.26-1.75-1.89-4.36-.61-1-1.34.06-1.7,1.15-.26.64-.54,1.26-.86,1.88s-.81.64-1.84.39c-1.21-.3-1,.19-2.2-.17-1.75-.52-3.63.62-5.87-.52-.62-.3,1.51-6.13,1.13-9.65a33.89,33.89,0,0,1,.38-3.91c1.18-11.42,1.54-20.1,3.23-25.41a13.58,13.58,0,0,1,1.35-3.06c.08-.38,1.6-5.44,1.06-5.79s-1.3,5.17-1.73,5.73c-2.56,3.29-3.8,19.17-3.67,20.17,0,.68,0,.53-3.89-.53a21.68,21.68,0,0,0-2.67-1S80,73.22,80,73.2c-.58-.3-.81-.45-.62-.85,4.39-9.21,4.89-12.65,7.16-16.56,1.67-2.93.58-4.41,4.51-6.86,1.13-.71,3.74-2.48,3.84-2,1.52,7.94,11,23.71,10.69,24.19-3.13,4,1.76,9.59.87,10.25-1.11.77-1.09,1.29-1.36,1-1-1.05-3-1.18-2.25-.32a10.42,10.42,0,0,1,2,1.21c.57.6.66.07,1.88-1.06.34-.33.34-.3,1.09,1.28,1.62,3.54,2.86,4.8,2.37,5.13-.92.59-.77.76-1.11.44-1.86-1.71-2.54-.74-1.88-.27A6.17,6.17,0,0,1,108.87,90c.57.64.81,0,1.58-.69C111,88.88,110.92,90.83,113.5,93.26Zm3.94,3.36c.57-.16,1.26-.22,1.15-.66a.4.4,0,0,0-.47-.35h0c-3.19.9-1.65,1.61-3,.37-.41-.39-.26-.28-1.69-.69a.39.39,0,0,0-.13.77c1.15.45,1,.19,1.73,1,.36.37.51.9,1.07.52S116.82,96.78,117.44,96.62Zm-4.41,2c.41-.84-1.32-.64-2.37.3-.72.64-.36-.47-2.48-.92-.77,0-.55.66,0,.83a3.28,3.28,0,0,1,1.79,1.24c.58.52.85-.21,1.15-.47C112.05,98.73,112.8,99.16,113,98.67Zm-5.49-4.25c.66-.24,1-.49.64-1-.19-.22-1,.19-1.3.34-1.54.77-1.39,1.41-1.71.94s-1.07-.73-1.84-1c-.87.52-.06.75.77,1.18a3.78,3.78,0,0,1,.88.75C105.92,96.55,105.72,95.07,107.54,94.42ZM104.47,87a.39.39,0,0,0-.39-.68c-2.37.64-2.24,1.92-2.73,1.47s-2.42-1.32-2.52-.62c0,.19.12.43.59.56,1.76.47,2,2,2.72.94S103.39,87.47,104.47,87ZM101.62,78c1.32-1.8,2-1.09,1.69-2-.21-.53-1.49.41-2.11,1.13-.28.32-.47-.4-2.18-.83-.81,0-.34.66-.22.71C100.88,77.82,101.06,78.8,101.62,78Zm-1.34-11c1.4-1.44,1.37-1.31,1.07-1.8-.17-.28-.73.19-.94.39-.94.81-.07.66-2.12-.11-.66,0-.62.49-.32.66C99.81,67.24,99.94,67.41,100.28,67.07Zm-1.41,4.08a.41.41,0,0,0-.28-.77c-1,.17-1.56,1.56-2,1.22-1.18-.81-.86-.34-1.56-.75-.21-.13-1.15.36-.13.81,1.39.6.75.49,2.09,1.09C97.82,72.2,98,71.47,98.87,71.15Zm-.32,11c.45-.25.38-.94-.07-.85a4.16,4.16,0,0,0-2,1.47c-.25.36-.68-.43-2.41-1-.26.15-.47.08-.28.64,0,.17.24,0,2.42,1.41a.57.57,0,0,0,.79-.21s0,0,0-.07A3,3,0,0,1,98.55,82.13ZM97.93,59c.14-.81-.75-.45-1.39.09s-.6.91-.92.77c-.73-.35-2.16-1.05-2.29-.43-.06.28,0,.43.37.53,2.16.71,2,1.5,2.67.62C97.63,58.82,97.85,59.46,97.93,59Zm-2.1,34.74c.62-.13,1.29-.36.86-.85-.3-.34-1.11,0-1.54.19-1.52.66-1.22,1.6-1.84,1a3.24,3.24,0,0,0-2.07-.6c-.56.13-.36.67,0,.75,1.07.24,1.28.22,1.6.58C94.4,96.43,94,94.11,95.83,93.73ZM94.66,87.6c.28-.08.7,0,.68-.49s-.38-.43-.77-.36c-1.66.34-1.79,1.68-2.24,1.28s-2.29-1.18-2.39-.47c-.07.45.47.53.92.64,1.06.28,1.28,1.15,2,.94S93.17,88,94.66,87.6Zm.55-10.4c.6-.35.32-.94-.29-.73C93.4,77,93.63,77.86,93,77.6s-2.09-.9-2.2-.34c-.08.41.2.43.62.6C94.85,79.33,92.71,78.63,95.21,77.2Zm-.85-10.35c.56-.55,1-.7.81-1.11s-.53-.23-.83,0c-1.65,1.39-.6,1.39-2.87.67-.21,0-.4,0-.47.23a.41.41,0,0,0,.26.47C93.85,68.26,92.84,68.37,94.36,66.85Zm-2-14.4c0-1.24-1.43.11-1.69-.3a2.43,2.43,0,0,0-.66-.81.31.31,0,0,0-.47.3c0,.21.45.81.66,1.3.43,1,.77,0,1.75-.23A.62.62,0,0,0,92.33,52.45Zm-3.57,6.31c1.5-.81,2-.45,1.9-1,0-.19-.19-.43-.66-.34-1.24.21-1.43.79-1.62.38-.82-1.68-1.46-1.15-1.18-.59C87.91,58.54,88.12,59.1,88.76,58.76Zm-.3,5.12a.4.4,0,0,0,.22-.51.39.39,0,0,0-.45-.23c-1.09.19-1.11.55-1.52.57-.21,0-.34-.7-1.6-1.24-.58,0-.11.82.25,1.07,1.12.75.82,1.6,1.71,1.05C88.76,63.54,87.59,64.26,88.46,63.88Zm-2,6.46c.38-.07,1.45-.11,1-.77-.3-.47-2,.13-2.44.38s-.21-.06-1.41-1.17c-.55-.54-1-.2-1,0,0,.65,1.22.77,1.64,2.14a.41.41,0,0,0,.43.28C85.32,70.89,85.28,70.54,86.48,70.34Z" fill="#fff59e"/><path d="M122.07,30.12c.05.67.05.58.09.6-.64,3.4-1.2,2.44-3,3.89s-1.64-2.48-2.92.83c-.11.28-.79-.34-.52-1.51a1.34,1.34,0,0,0-.47-1.33c-1.24-.81-1.51-.19-1.86-.72-.89-1.39-2-.67-2.37-1.35a2,2,0,0,0-1.19-.81,1.55,1.55,0,0,0-1,.15c-.79.23-.81-.67-2.13-.49-1.11.15-1.41-1-2.4-.11-.34.3-.49.19-1,.06s-.83,0-.3-1.83c.41-1.37,1.09-2.76,2.54-2.14.28.11.58-.15.26-.51s-1.17-.3-1.3-.47a5.77,5.77,0,0,1,.36-2.91c.19-.51,1.07-1.45,1.75-.36.05.08.11.51.49.51.07,0,.28-.24.2-.64a1.49,1.49,0,0,0-1.84-1.09c-.15,0-.09-.17.13-.66s.21-.68.4-.58c1.14.56,2-.58,2.25-.56a3.58,3.58,0,0,0,1.86.9,1.59,1.59,0,0,0,1.62-.89.17.17,0,0,1,.23-.11c.75.13.92-.11,1.09,0a2.05,2.05,0,0,0,2.25,1.11s.3-.15.34,0c.21.88.85,1.07,1.65,1.28,1,.26-.39.58,1,2.2.38.45.17.26,0,.54-1.73,2.22.17,2.37-.35,2.88-1.56,1.52-.38,2-1,2.8-1.37,1.6,1,2.52,1.43,1.8C119.62,28.23,122,28.91,122.07,30.12Z" fill="#e5b39e"/><path d="M121.79,106.3c.32-.14.58-.09.62.3C122.35,107.88,120.51,106.84,121.79,106.3Z" fill="#fff59e"/><path d="M121.69,109.76c-.15,5.83-3,9.31-4.89,13.4,0,0,.21-.57-1.67,4.06-.45,1.09-1,2.3-1.35,3.16a28.85,28.85,0,0,1-2.69,5.28c-3,4.44-4.49,3.09-5.88,6.66-.85,2.2,1.67,1.5-.87,5.28-.58.85-1.8,1.32-2.91,2.67-.43.51-.28.88-.15,1.5.37,1.62-1,2.58-2,3.86a24.3,24.3,0,0,0-1.8,3.61c-.81,1.89-1.52,2.38-2.37,4.09,0,0-3.1,6.51-3.12,6.53-.64,1.56-1.88,3.25-2.24,4.15-.62,1.52-.67,1.69-.94,1.26-.75-1.2-3-4-4.28-4.59s-.94-1.65-3.2-2.8c-1.69-.86-3.27-3.1-5.13-4.4-3.37-2.36-2,2.1,4.61-11.91,2-4.18,3.36-6.23,3.89-8.24.15-.54.71-2.93.71-3,1.28-3.63,2.67-4,3.87-6.28.64-1.22,4.65-9.13,5.36-10.54,3.29-6.7,2.5-5.5,2.88-7A42.61,42.61,0,0,0,99.08,111a3.3,3.3,0,0,0,1.28,0c.35-.15.11-.51-.08-.55-1.69-.19-2,.06-3.1-.17a2.46,2.46,0,0,0-1.79.47c-.39.43-.09.68.34.47.66-.34.85-.45,1.51,0,1.09.66.86,2,.3,3.52-1.07,3-.72,2.69-1,3.48-.88,2.29-1,1.91-1.93,4.26-.15.45-.56,1.54-.7,1.09-.69-2-2.26-4.26-2.76-8.23-.13-1.37-.94-3.83-1.24-5.83-.34-2.29-.23-10.2-.23-10.22,0-.21.1-.23.25-.23,1.71-.09,2.23-.24,3.19.1.7.26.87-.19,1.84.09s2.13.38,2.58-.66c.3-.67.19-.22,2.16-.22.62,0,.73.32,1.13,1.33s.81,1.07,4.06,2.07c6,1.89,6.29.76,4.92,1.67a14.51,14.51,0,0,1-2.53,1c-1.21.47-.62,2.24,2.18,1.75,2.46-.43,2.16-1.17,2.63-.53,6.21,8.57,8.5,7.08,7.48,6.34-.3-.21-.77.15-.28-.81,1.88-3.55.34-3.57,2.29-3.12C121.88,108.21,121.73,108,121.69,109.76ZM111.28,107c2.36,4.85,5.88,8.68,6,7.33-.45-1.28-.52,1-5.45-7.44C111.43,106.15,111.11,106.64,111.28,107Zm-11.22,2.46c.62.1-.27-5.09,0-7.63.09-1,.41-2.8-.28-2.16a26.72,26.72,0,0,0-.36,4.19,6.32,6.32,0,0,1,.19,2.41C99.53,106.66,99.55,109.35,100.06,109.44Zm-2.37.15c.62-.32-.85-3.29-.64-4.9,0,0,0-4.12-.36-4.16-.69-.07,0,3-.15,3.52C96.26,105,97.05,109.91,97.69,109.59Z" fill="#ff9c9f"/><path d="M121,103.56c.69,0,.73,1.09-.06,1.11S120.19,103.61,121,103.56Z" fill="#ffccce"/><path d="M120,105.19c.21,0,.47.36.47.64a.61.61,0,0,1-.45.53c-.21,0-.53-.38-.53-.64A.62.62,0,0,1,120,105.19Z" fill="#d3ffb0"/><path d="M119.62,107.19c.62.47-1.22,4-1.24,4.06-.17.37-1.54-.64-3.44-2.88-.75-.88-1.61-2-2.5-3.21s-.54,0-3.59.35c-.24,0-1.56,0-1.54-.3,0-.6,1.41-.49,2.63-1.22s1.32-.41,1.68-.71a6.61,6.61,0,0,1,3.76-1.32.7.7,0,0,1,.28,0,.65.65,0,0,1,.52.25,3,3,0,0,1,.32.47c1,1.76,2.22,2.14,2,2.59C118.29,106,119,106.7,119.62,107.19Z" fill="#e5b39e"/><path d="M115,34c-.38,1.86,1.07,1.69.49,3.19-.9,2.33-1.09,2.65-1.86,2.82-1,.23-.47,1.81-2.16,1.43-.36-.09-1.09-.26-1.21,0-.26.45-.82.4-1.12.77-2.65-.11-2.09-1.41-3.39-.84-1.93.88-1.48-1.32-2.93-1.13-.24,0-.71.26-1-.08a1.29,1.29,0,0,1-.2-1.31c.77-1.07-.38-1.45,0-2.2s.65-1,.22-1.6c-1.07-1.41.7-1.6,0-3.06-.39-.81-.22-2,.92-2.07,1.15.19,1.15.32,1.58,0,.28-.17.51-.49,1-.25a1.8,1.8,0,0,0,1.17.36c1.44-.19,1,.66,2.38.51.23,0,1.06-.44,1.58.37.23.36.34.66.87.62,1.61-.15,1.44,1.34,2.63,1.3A1,1,0,0,1,115,34Zm-8.65-1.38c.23-.07.76-.11.66-.45,0-.17-.19-.2-.34-.2-1.69.17-2.7-1.81-3.53,1.09-.32,1.09.83.84,2,2.2a.51.51,0,0,0,.43.07c.64-.41-1.78-1.58-1.52-1.88C105.19,32.13,103.42,31.85,106.33,32.65Z" fill="#897466"/><path d="M114.21,40.59c.28.94-2.49,3.67-.15,5.09.15.08.17.17,0,.28-2.71,2.26-5,2.09-5,2.07-2.54,0-1.3,1-2.37,4-.4,1.15-.38,1-.66,1.38-.19-.12-.13-.26-.13-.49-.17-1.79-.75-1.58-.47-2.82s.64-2.41-.25-2.9c-1.24-.67-1-1.22-1.76-2.25-.19-.28.07-.25.54-.4s.75-.54,1.17-1.91c.13-.4.34-.32.58-.47a.75.75,0,0,1,1.07.15,2.22,2.22,0,0,0,1.26.5c1.39.34,1.37-.09,2.65-.77.32-.17,1.84.81,2.71-.82C113.89,40.51,113.48,41,114.21,40.59Z" fill="#e5b39e"/><path d="M112.37,79.12c1,.13,1,.32.92,1a.74.74,0,0,1,0,.18c-.09.44-.11.44-.56.42-.85,0-1,0-.92-.85C111.77,79.25,111.79,79,112.37,79.12Z" fill="#ffffff"/><path d="M109.06,70.64c2,5.44,4.74,8.22,4,8.07-.94-.17-1,.05-1.5-.81-3.44-6.47-3.44-6.62-3.06-8.12.13-.51.73-.77.82-.66S108.76,69.8,109.06,70.64Z" fill="#ffffff"/><path d="M112.69,81.47a10.3,10.3,0,0,1,.15,2.46c-.08,1,.43,1.45-.38,1.49-1.26.07-.84-.53-.66-1.73a14.15,14.15,0,0,1,.38-2.29.29.29,0,0,1,.32-.19A.28.28,0,0,1,112.69,81.47Zm-.15,3.18a.34.34,0,1,0-.68,0C111.84,85,112.54,85.31,112.54,84.65Z" fill="#ffffff"/><path d="M107.56,69.05c.26.41-.12.39-1,1.18-.47.43-.11.64-2.09-3.06-1.31-2.41-7.25-13.56-8.7-19a7.72,7.72,0,0,1-.32-2c0-1,.56-1.07,1.33-1.33.17.6-1.37.42,4.42,13.06.45,1,1,1.47,3.31,6.11C105,65.12,107.11,68.33,107.56,69.05Z" fill="#d3ffcf"/><path d="M139.53,75.81c-1.92-6.14-1.92-6.5-2.14-6.78l-.13-.36c-1.45-3.65-1.68-3.48-2-4.29-1.35-4.06-1.84-5.88-2.24-6.76-1.18-2.6-2.65-3.54-3.42-6-.9-2.86-3.81-1.92-4.23-2s-.24-.34-.07-.45c.47-.26,1.88-.13,0-.81-5.87-2.22-3.12-1.52-6.39-3.16a.12.12,0,0,0-.1-.05c-.45,0,.79,2.48-.45,3.83-.79.87-.92.72-2.82,1.73-.71.38-1,1-2,1.6-2,1.13-3.93,3.23-4.33,1.33-.18-.79.14-1.09-.07-1.78a2.39,2.39,0,0,1,0-1.19c0-.17.17-.41,0-.54s-.33.15-.5.24a.3.3,0,0,1-.33-.48c.35-.49,1.72-.8,1.49.88-.15,1.09.28,1.41.06,2.25-.06.17,0,1,.39.7.74-.49,2.07-1.47,2.5-1.69a6.46,6.46,0,0,0,2.13-1.64c1.69-.92,2.1-.9,2.65-1.41a2.69,2.69,0,0,0,.73-2.8c-.94-2.83,1.11-2.52-3.06-4.68h0c-.67-.36-.82.51-.38.77.9.43,1.71.55,1.47,1.69a3,3,0,0,1-.75,1.6c-1.06.79-2,2.35-5.19,3.1-1.77.43-2.26-.45-2.41.75-.52,4.61-2.09,4.83-1.84,5.91.09.39,0,.94-.3.73-.49-.34-.17-1.62-.23-1.75a6.47,6.47,0,0,1-.26-1.35c-.44-2-.62-1.58-.55-2.13,0-.11.34-2.36.36-2.46.08-.75-1.32-.66-1.67-2.12-.27-1.15-1.94-1.3-1.3-3.2.55-1.5,1.54-1.22,1.24-1.67-.77-1.15-3.85.43-3.89,3.14,0,1.05.7,1.65.57,3.06-.08,1,.58,1.45.69,2.18a3.48,3.48,0,0,0,1,1.86,13.1,13.1,0,0,1,1-3.17c.4-.9,1.68-.5,1.77.41.06.6-.47.71-.51.34s-.26-.58-.52-.6-1.13,2.91-1.19,3.17c-.15.64-.39,1.06-.84.59-1.56-1.62-1.06-2.28-1.62-3.18-.68-1.15-.15-1.54-.55-3-.35-1.23-.34-1.56-.6-1.44-1.8.79-1.8.09-.32,4.94,1.15,3.83,4.48,9.89,7.22,15.15.08.15,2.09,2.78,2.63,3.85s1.94-2.59,6.36,2a29.24,29.24,0,0,1,3.06,3.87,48.7,48.7,0,0,1,3.27,4.25c4.5,6.74,1.31,2.72,3.91-2,.3-.54,0-.69-.36-2.25-.24-1.18-.71-1.27-.92-1.84a29.83,29.83,0,0,0-1.93-4.7,7.26,7.26,0,0,1-1-3.27c-.53-4.63-1.88-3.46-1-10.42.08-.58.56-.52.53.08-.06,1.43-.7,4.28.47,7.18.84,2.05.24,1.69,1,5.07.17.66.9,1.68,1.43,2.88s.75,2.89,1.54,3.63c.19.17.11.07.36,1,.17.64.54,1.79,1.24,3.84.88,2.68-.2,3.22,12.89-1.58a1.18,1.18,0,0,0,.25-.19A.27.27,0,0,0,139.53,75.81ZM104.08,54.4c-.85.85-1.07,1.28-1.62.83s-.86-.6-.94-.81,0-.51.4-.49c1.56.59.37.53,1.76-.17C104.1,53.54,104.47,54,104.08,54.4Zm24.4,2.92c1.76.24,1.56.3,1.8,0,1.22-1.73,1.41-.38,1.17-.13-.81.9-.77,1.86-1.34,1.46s-1.37-.35-1.8-.56S127.82,57.32,128.48,57.32Zm1.46,4.41c-.92.49-.9,1.77-1.52,1.81-1.16-.45.08-.15-1.6-.64-.17,0-.86-.13-.73-.6.21-.75,2,.45,2.26,0C129.64,60,130.56,61.39,129.94,61.73Zm-3-9c.26-.32.71-.49.9-.17s0,.47-.83,1.48c-.6.68-.43,1.77-1.39,1.26a7.62,7.62,0,0,0-2.33-.67c-.3,0-.68-.57.3-.81C126.45,54.44,125.3,54.91,126.92,52.77Zm-21.21,7.59c-1.35-.43-.26-1.69,1.56-.13.85.73.06-.47,2.26-1.13a.41.41,0,0,1,.3.77,2.71,2.71,0,0,0-1.54,1.34C107.86,62.32,107.27,60.85,105.71,60.36Zm5.64,4.89c-.66.47-.41.34-1.09.77-2.55-.62-3-2.56-.39-1.07.52.3,1.73-1.41,2.14-.51C112.2,64.82,111.73,65,111.35,65.25Zm.83-10.79c.28-.47,1.47.17,1.5.17.68.22.66.26,1.11-.32,1.51-2,2-.54,1.56-.3-1.22.59-1.11,1.82-1.91,1.71C113.82,55.57,111.86,55,112.18,54.46Zm1.62,5c1.67.88.62,1.22,2.1.15.94-.68,1.21.25.75.54-1.44.86-1.24,1.6-2,.94C114.38,60.87,112.35,59.46,113.8,59.48Zm2.67,7.07c-.76-1-1.62-1-1.36-1.51s1.07.1,1.47.45c.62.53.45-.41,1.86-.84.45-.13.81-.1.81.37s-.62.15-1.47,1C117.48,66.36,117,67.28,116.47,66.55ZM122.35,76c1.15-.83,1.58-.53,1.54-.43-.13.26.43.26-.64.77s-.26.81-1,1a1,1,0,0,1-.58-.49c-.42-.75-.64-.62-1-1.12-.17-.25.15-.53.39-.46C121.88,75.57,121.92,76.34,122.35,76ZM121,70.66a.36.36,0,0,1,.27.66c-.74.45-.53.09-1.28.73-1.58,1.47-.64-.24-2.67-.77-.17,0-.51-.69.26-.73a2.4,2.4,0,0,1,1.56.88C119.44,71.79,119.29,71.06,121,70.66Zm-1.61-8.08a.25.25,0,0,1-.42.21,3.58,3.58,0,0,1-.54-1.56c-.81-2.65-1.11-2.86-1.28-4.7-.19-2.13.38-2.13.43-1.79a20.31,20.31,0,0,0,.47,3.4,23.4,23.4,0,0,1,1.11,3.52C119.21,61.77,119.42,62.56,119.42,62.58Zm2-11.11c-1.11-.41-1.39-.62-2-.58-.32,0-.59-.06-.64-.38s.43-.39.9-.47c2.24.6,1.39.79,2.46-.66.47-.62,1.17-.6,1.24-.2.13.73-.24-.11-1.26,1.82C122.05,51.17,122,51.7,121.41,51.47Zm.73,8.59c-.37-.07-.71-.54.06-.77,1.65.21,1.73.3,2-.13s1.24-1.3,1.53-.77-.08.49-.29.69c-1,.87-.77,2.13-1.69,1.32A6.07,6.07,0,0,0,122.14,60.06Zm4.55,8.4c-.22,1-.86.36-2-.09a5.55,5.55,0,0,0-.85-.23.36.36,0,0,1,0-.67,3.3,3.3,0,0,1,1.77.37c.62.23.45-.92,1.8-1.37.3-.09.57.4.15.77A2,2,0,0,0,126.69,68.46Zm4.59,6.77c-1.21.92-1.09,2.16-1.77,1.77a10.77,10.77,0,0,0-2.27-.7.35.35,0,0,1,.07-.69c.83-.13,1.36.36,2.12.44.42,0,0-.43,1.15-1.27C131.5,74.14,131.56,75,131.28,75.23Zm1.6-5.62c-.06.15-.12.36-.25.43-.77.36-.79,1.24-1.58,1.86-.58-.17-.88-.58-2-.94-.45-.15-.36-.92.32-.71,1.5.47,1.32.83,1.71.28.9-1.26.49-1,1.64-1.13C132.78,69.37,132.91,69.55,132.88,69.61Zm.45-3.29c-.45.79-1.07-.34-1.88-.41s-.81,0-.85-.38c0-.58,1.13-.47,1.64-.24s.49.43.71.09c.45-.75,1.56-1.28,1.56-.43C134.1,65.46,133.74,65.46,133.33,66.32Zm4.32,6.52c-1,.86-.81,1.94-1.65,1.49-.53-.3-1-.13-1.88-.64-.17-.11-.3-.51.39-.51,2.28.33,1.35.41,2.28-.64a.78.78,0,0,1,.54-.3A.34.34,0,0,1,137.65,72.84Z" fill="#fff59e"/><path d="M88.93,105.36a.65.65,0,0,1,0,.19c-1.54-.9-1.86-3.25-2.54-4.94-2.4-6-3.57-7.88-5.11-12.15-1.08-3-1.78-6-2.86-8.47s.23-5.29.57-6.38c.2-.62,1,.81,5,2.09s4.27,1.11,4.59,1.52c-.55,3-1.08,13.21-1.5,15.92-.08.59-.4,1-.47,1.6a8.15,8.15,0,0,1-.51,2.73.68.68,0,0,0,.32.77C89.59,100.49,88.8,95.89,88.93,105.36Z" fill="#e5b39e"/><path d="M86.56,173.54a16.1,16.1,0,0,1-1.6,2.35c-2.1-2.18-2.12-1.94-2.25-2.07-4.31-4.58-5.23-.79-2.56-5.54.09-.15.17-.21.34-.12,2.87,1.55,2,1.94,3.81,3.18A7.42,7.42,0,0,1,86.56,173.54Z" fill="#d6ad9e"/><path d="M81.26,184.2c.23,1-1,1-1.41,1.37a6.13,6.13,0,0,0-4.29.77c-3.79,2.33-.9,1.56-4.36-1.58a17.11,17.11,0,0,0-1.71-.86,9.38,9.38,0,0,0-1.82-.38c-2.71-.38-1.64.23-3.74-2.07-.23-.28-.49-.52-.49-.73a18.22,18.22,0,0,0-.4-2.84,2,2,0,0,1,.79.17,4.85,4.85,0,0,1,1,2.73c0,1.69,1.48,1.09,2.2,1.58a1.21,1.21,0,0,0,1.18.11,1.78,1.78,0,0,0,1.13.26c1.69-.37,1.09-2.31.83-3.29a2.7,2.7,0,0,1-.08-.39c-.07-.47,0-.43.45-.51a2.28,2.28,0,0,0,1.24-.75c.59-.64.25-1.52,1.47-1.17a3.79,3.79,0,0,1,2.31,1.53,2.5,2.5,0,0,1-.79,3.44,8.54,8.54,0,0,1-2.42.69c-.38.15-.15.68.41.62,2.22-.32,2-1,2.35-.36,1.22,2.54,3.74,1.13,4.91,1.55.24.09.62-.14.52-.38C80,182.66,81.13,183.63,81.26,184.2Z" fill="#c5cdf3"/><path d="M78.8,186.17c.67.06.73,0,.62.47-.27,1.34-2.92,4.78-2.94,4.81-.2.21-.15,0-1.82-1.44-1.28-1.11-1.6-1.11-1.26-1.39C76.69,186,77.78,186.25,78.8,186.17Z" fill="#ffccce"/><path d="M72.27,187.17c.25.43.49,1.45,0,1.07-.26-.19-6.46-3.93-5.56-4.25C69.36,184.52,70.68,184.52,72.27,187.17Z" fill="#ffccce"/><path d="M62.67,179.59c.11.49.09.34.07.51-.26-.17-3.25-3.12-5.07-3.89-.62-.26.34-.41.69-.32C61.16,176.49,62.57,176.92,62.67,179.59Z" fill="#ffccce"/><path d="M137.24,72.22a.36.36,0,0,1,.35.62c-1,.85-.8,1.94-1.67,1.45-.51-.3-1-.13-1.88-.64-.17-.11-.3-.51.38-.51,1.63.23,1.65.34,1.82,0s.3-.43.47-.65A1,1,0,0,1,137.24,72.22Z" fill="#000001"/><path d="M132.86,65.38c.44-.75,1.58-1.28,1.56-.43-.38.49-.74.51-1.19,1.35s-1.07-.34-1.88-.41-.82,0-.86-.38c0-.58,1.11-.47,1.65-.24S132.67,65.72,132.86,65.38Z" fill="#000001"/><path d="M132.67,69.38s.17.17.15.21-.13.38-.26.43c-.77.34-.79,1.24-1.58,1.85-.57-.19-.87-.57-2-.94-.45-.14-.37-.91.32-.7,1.51.45,1.32.83,1.71.28C131.9,69.25,131.52,69.52,132.67,69.38Z" fill="#000001"/><path d="M130.21,57.3c1.21-1.73,1.41-.4,1.18-.13-.81.88-.77,1.86-1.35,1.46s-1.39-.34-1.79-.56-.49-.72.17-.72C130.19,57.58,130,57.64,130.21,57.3Z" fill="#000001"/><path d="M130.51,74.78c.92-.65,1,.24.71.45-1.22.92-1.09,2.16-1.8,1.77a10.39,10.39,0,0,0-2.26-.7c-.32-.11-.43-.64.06-.69.87-.13,1.39.37,2.14.44C129.78,76.08,129.33,75.61,130.51,74.78Z" fill="#000001"/><path d="M128.31,62.24c1.29-2.29,2.2-.86,1.58-.54-.92.5-.89,1.78-1.51,1.82-1.14-.45.1-.15-1.61-.64-.17,0-.85-.13-.72-.6C126.26,61.55,128,62.73,128.31,62.24Z" fill="#000001"/><path d="M127.76,52.6c.17.3,0,.47-.84,1.48-.6.68-.42,1.79-1.39,1.24a6.91,6.91,0,0,0-2.32-.67c-.3,0-.69-.57.29-.81,2.89.6,1.73,1,3.36-1.09C127.12,52.45,127.59,52.26,127.76,52.6Z" fill="#000001"/><path d="M127.37,66.47c.28-.1.58.41.15.77a2,2,0,0,0-.9,1.19c-.23,1-.85.37-2-.08-.24-.09-.45-.09-.86-.24a.35.35,0,0,1,0-.66,3.24,3.24,0,0,1,1.78.37C126.2,68.09,126,67,127.37,66.47Z" fill="#000001"/><path d="M125.64,58.39c.22.39-.08.52-.3.69-1,.85-.77,2.13-1.69,1.34a5.29,5.29,0,0,0-1.58-.34c-.36-.06-.7-.53.07-.77,1.64.21,1.73.3,2-.13S125.34,57.86,125.64,58.39Z" fill="#000001"/><path d="M122.29,76a3.22,3.22,0,0,1,1-.54c.58-.13.89.38-.16.9s-.25.82-1,1a1.21,1.21,0,0,1-.58-.49c-.43-.75-.62-.62-1-1.11-.17-.26.15-.56.38-.47C121.82,75.55,121.86,76.32,122.29,76Z" fill="#000001"/><path d="M123.33,49.18c.13.73-.21-.06-1.26,1.82-.08.15-.13.68-.7.47-1.13-.43-1.39-.62-2-.58-.34,0-.62,0-.64-.38s.45-.41.9-.47c2.24.6,1.39.79,2.46-.66C122.59,48.73,123.27,48.78,123.33,49.18Z" fill="#000001"/><path d="M120.94,70.68a.36.36,0,0,1,.28.66c-.73.45-.54.09-1.26.75-1.61,1.45-.64-.24-2.67-.77-.2,0-.54-.68.25-.73a2.66,2.66,0,0,1,1.56.88C119.36,71.81,119.23,71.06,120.94,70.68Z" fill="#000001"/><path d="M120,30.1c1.82-.62,1.54,2,.85,1.16,0-.05,0-.79-.62-.52s-.89.58-.62,1.07c.54.94-.1,1.75-.74,1.63a.34.34,0,0,1-.11-.67c.23-.12.56-.17.28-.53C118.48,31.56,118.85,30.49,120,30.1Z" fill="#000001"/><path d="M118.38,64.65c.44-.13.81-.1.81.37s-.6.12-1.48,1.06c-.3.32-.74,1.24-1.3.52-.77-1-1.62-1-1.37-1.52s1.07.09,1.48.45C117.14,66,116.94,65.08,118.38,64.65Z" fill="#000001"/><path d="M119.36,62.58a.26.26,0,0,1-.43.21,3.65,3.65,0,0,1-.53-1.58c-.81-2.65-1.11-2.86-1.28-4.7-.2-2.13.38-2.13.42-1.79a18.85,18.85,0,0,0,.47,3.39,21.7,21.7,0,0,1,1.11,3.53C119.15,61.77,119.36,62.56,119.36,62.58Z" fill="#000001"/><path d="M118.61,96c.11.44-.6.53-1.15.66s-.84.53-1.35.92-.68-.13-1.07-.52c-.77-.77-.57-.51-1.73-1a.39.39,0,0,1,.13-.77c1.45.41,1.28.3,1.69.69,1.32,1.21-.22.53,3-.37a.4.4,0,0,1,.49.3A.12.12,0,0,0,118.61,96Z" fill="#000001"/><path d="M117.31,114.31c-.17,1.32-3.72-2.46-6-7.33-.17-.34.15-.83.6-.08C116.8,115.36,116.86,113,117.31,114.31Z" fill="#000001"/><path d="M115.83,59.63c.94-.68,1.22.26.75.54-1.43.87-1.24,1.6-2,.94-.25-.24-2.28-1.65-.83-1.63C115.41,60.36,114.36,60.7,115.83,59.63Z" fill="#000001"/><path d="M114.74,54.31c1.5-1.94,2.06-.53,1.56-.3-1.24.6-1.11,1.82-1.88,1.73s-2.58-.7-2.26-1.26,1.47.15,1.49.17C114.29,54.85,114.3,54.89,114.74,54.31Z" fill="#000001"/><path d="M113.06,20.91c1.77-.15,2.77,2.74,1.85,2.74-.42,0-.14-.41-.83-1.45-.53-.84-1.79-.56-2.33-.17s-.62.81-.94.64C110,22.22,111.92,20.76,113.06,20.91Z" fill="#000001"/><path d="M113.72,28a.31.31,0,0,0-.26.38.3.3,0,0,0,.58,0A.29.29,0,0,0,113.72,28Z" fill="#000001"/><path d="M111.47,25.51c2.63.36,2.36,2.5,1.61,1.79a2.92,2.92,0,0,0-3-.89C109.72,26.3,109.44,25.85,111.47,25.51Z" fill="#000001"/><path d="M110.66,99c1-.92,2.78-1.11,2.37-.3-.25.51-1,.08-1.9.94-.28.28-.57,1-1.15.47a3.28,3.28,0,0,0-1.8-1.24c-.57-.17-.79-.77,0-.83C110.3,98.48,109.94,99.59,110.66,99Z" fill="#000001"/><path d="M111.86,84.67a.34.34,0,1,1,.68,0C112.54,85.31,111.84,85,111.86,84.67Z" fill="#000001"/><path d="M111.94,64.42c.2.4-.27.53-.66.81a7.64,7.64,0,0,1-1.09.77c-2.54-.64-3-2.56-.38-1.07C110.32,65.23,111.54,63.54,111.94,64.42Z" fill="#000001"/><path d="M109.49,59.12a.41.41,0,0,1,.28.77,2.59,2.59,0,0,0-1.54,1.37c-.43,1.11-1-.37-2.59-.86-1.37-.43-.26-1.69,1.56-.13C108.08,61,107.29,59.78,109.49,59.12Z" fill="#000001"/><path d="M108.18,93.48c.43.47,0,.7-.64,1-1.81.66-1.62,2.14-2.56,1.28a3.35,3.35,0,0,0-.88-.75c-.83-.42-1.64-.66-.77-1.17a3.28,3.28,0,0,1,1.84,1c.3.47.17-.19,1.71-.94C107.18,93.65,108,93.26,108.18,93.48Z" fill="#000001"/><path d="M106.18,26.17c.59.06,1.75.36,1.41.88s-.65-.26-1.5-.17c-.56.06-.41.64,0,.89s1,.43,1.09.52.11.59-.47.55C104.85,28.67,104.44,26.19,106.18,26.17Z" fill="#000001"/><path d="M107,32.2c.09.36-.43.4-.66.45-2.91-.82-1.14-.52-2.31.85-.26.3,2.18,1.47,1.51,1.88a.52.52,0,0,1-.42-.06c-1.18-1.37-2.33-1.12-2-2.2.83-2.91,1.84-.92,3.52-1.09C106.8,32,107,32,107,32.2Z" fill="#000001"/><path d="M104.08,86.28a.39.39,0,0,1,.39.68,4.29,4.29,0,0,0-2.33,1.65c-.67,1-1-.47-2.72-.94-.47-.13-.62-.37-.59-.56.1-.71,1.94.09,2.52.62S101.71,86.91,104.08,86.28Z" fill="#000001"/><path d="M103.63,53.73c.41-.21.77.26.41.65-.86.87-1.07,1.28-1.6.81s-.86-.6-.94-.81,0-.52.4-.5C103.44,54.52,102.23,54.47,103.63,53.73Z" fill="#000001"/><path d="M103.31,76.06c.35.9-.34.2-1.69,2-.55.77-.74-.21-2.82-1-.15,0-.62-.73.22-.71,1.71.43,1.9,1.16,2.18.84C101.82,76.45,103.1,75.53,103.31,76.06Z" fill="#000001"/><path d="M101.35,65.27c.29.5.32.37-1.07,1.8-.34.36-.45.17-2.29-.86-.3-.17-.34-.66.32-.66,2,.77,1.18.94,2.12.11C100.64,65.44,101.17,65,101.35,65.27Z" fill="#000001"/><path d="M100,101.81c-.21,2.52.68,7.74,0,7.63s-.51-2.78-.51-3.16a6.56,6.56,0,0,0-.19-2.42,26.72,26.72,0,0,1,.36-4.19C100.41,99,100.09,100.78,100,101.81Z" fill="#000001"/><path d="M98.59,70.38a.41.41,0,0,1,.26.77c-.84.32-1,1-1.93,1.58-1.34-.58-.7-.49-2.09-1.09-1-.43-.09-.92.13-.81.7.4.38-.07,1.56.75C97,71.94,97.63,70.55,98.59,70.38Z" fill="#000001"/><path d="M98.48,81.28c.43-.09.52.59.07.85A3.18,3.18,0,0,0,97,83.52a.57.57,0,0,1-.75.32s0,0-.06,0c-2.18-1.43-2.35-1.24-2.42-1.41-.19-.56,0-.52.28-.64,1.73.55,2.16,1.34,2.41,1A4.25,4.25,0,0,1,98.48,81.28Z" fill="#000001"/><path d="M96.54,59.05c.64-.51,1.52-.89,1.39-.08-.09.47-.3-.17-1.56,1.58-.62.86-.51.09-2.67-.62-.32-.11-.41-.26-.37-.53.13-.62,1.56.08,2.29.42C95.92,60,96,59.5,96.54,59.05Z" fill="#000001"/><path d="M97.05,104.69c-.21,1.61,1.26,4.58.64,4.9s-1.43-4.62-1.15-5.54c.15-.51-.54-3.59.15-3.52C97.09,100.57,97.05,104.67,97.05,104.69Z" fill="#000001"/><path d="M96.69,92.88c.44.52-.24.73-.86.85-1.81.39-1.45,2.7-3,1-.32-.34-.55-.34-1.6-.58-.38-.08-.56-.6,0-.75a3.31,3.31,0,0,1,2.07.6c.62.64.32-.3,1.84-1C95.58,92.88,96.38,92.52,96.69,92.88Z" fill="#000001"/><path d="M95.34,87.11c0,.45-.42.41-.68.49-1.48.41-1.2,1.33-1.84,1.54s-.87-.66-2-.94c-.45-.11-1-.19-.92-.64.1-.69,1.9,0,2.39.47s.58-.94,2.24-1.28C95,86.68,95.32,86.7,95.34,87.11Z" fill="#000001"/><path d="M94.92,76.47c.62-.21.89.4.29.73-2.5,1.41-.38,2.11-3.76.68-.45-.19-.7-.19-.62-.6s1.61.09,2.2.34S93.4,77,94.92,76.47Z" fill="#000001"/><path d="M95.17,65.74c.24.4-.25.56-.81,1.11-1.52,1.52-.51,1.41-3.12.26a.4.4,0,0,1-.26-.47c.07-.21.26-.19.47-.23,2.27.72,1.24.72,2.87-.67C94.62,65.51,95,65.4,95.17,65.74Z" fill="#000001"/><path d="M90.64,52.15c.26.41,1.71-.94,1.69.3a.73.73,0,0,1-.43.28c-1,.21-1.32,1.2-1.75.24-.21-.5-.62-1.12-.66-1.31a.32.32,0,0,1,.47-.32A2.27,2.27,0,0,1,90.64,52.15Z" fill="#000001"/><path d="M90.66,57.73c.07.56-.4.19-1.9,1-.64.35-.83-.21-1.56-1.58-.28-.53.34-1.07,1.18.6.19.41.38-.17,1.62-.38C90.45,57.3,90.64,57.54,90.66,57.73Z" fill="#000001"/><path d="M88.23,63.14a.39.39,0,0,1,.23.74c-.87.39.3-.32-1.41.71-.9.55-.6-.28-1.71-1.05-.38-.25-.83-1-.25-1.07,1.28.54,1.41,1.24,1.6,1.24C87.12,63.71,87.14,63.35,88.23,63.14Z" fill="#000001"/><path d="M87.48,69.57c.43.66-.64.68-1,.77-1.17.21-1.15.55-1.77.83a.43.43,0,0,1-.43-.28c-.42-1.39-1.6-1.51-1.64-2.13,0-.18.45-.5,1,0,1.2,1.11,1.09,1.37,1.41,1.17S87.18,69.12,87.48,69.57Z" fill="#000001"/><path d="M85.39,12.13a1.22,1.22,0,0,0-.84-.62,2.38,2.38,0,0,0-1.52,0,15.81,15.81,0,0,0-3.35,1.09c-.88.47-.19.39,1.09,3.61.11.24.78,1.87.58,2,0,0-.12,0-.2,0-2.14-.36-3.22,1.26-2.49,2.11,1.3,1.5,3.78-.15,3.39-1.66,0,0-.18-1.23-.34-1.86-.7-2.54-1-2.54-.41-2.76,2.27-.77,3.1-1.09,4-.79C86,13.41,86.3,13.82,85.39,12.13Z" fill="#000001"/><path d="M70,15.36c1.5-1.11,2.37-.24,2.16-1A17.83,17.83,0,0,0,70,9.59c-.45-.76-.5-.47-2,.19a33.77,33.77,0,0,0-6.13,3.49c-2.48,1.73-1.22.23.49,4.95.51,1.41,1.07,2.65-.43,3.44-2.15,1.18-3.5-.83-2-2.11,1-.9,2-.41,1.82-.86-2.69-6.79-4.38-5.28-2-7.26a31.51,31.51,0,0,1,8.61-4.66c.67-.24,1,.17,1.5,1,2.29,3.46,5.32,9.49,1.24,10.13A1.38,1.38,0,0,1,70,15.36Z" fill="#ffff"/><path d="M93.68,20.81c-3.89-.92-4.13-.83-4.32.53a16.67,16.67,0,0,1-1.07,3.95c-.06.15-.3.58-.4.39a1.8,1.8,0,0,0-1.37-.94,1.19,1.19,0,0,0-1.41,1.6,1.93,1.93,0,0,0,1.15.94c.34.11,1.58.34,2-.58,2.29-4.88.08-4.59,4.29-3.8a31.06,31.06,0,0,1,3.38.9c.19.06.26.19.19.49a14.64,14.64,0,0,1-1,3.21c-.26.47-.17-.84-1.8-.88-2.22-.06-2.05,2.54.34,2.52.62,0,1.33,0,1.71-.88A16.74,16.74,0,0,0,97,22.52C97.14,21.58,96.73,21.53,93.68,20.81Z" fill="#ffff"/><path d="M144.89,177.58c-1.08-1.8-1-1-1.32-1.63a8.1,8.1,0,0,0-2.31-3.41c-1-.73-1.07-.86-1.09-1.16-.08-1.45-.58-1.86-1.39-2s-1.39.71-1.56.37c-.66-1.33.07.23-5.38-8.21-.39-.6.83-.92,1.79-4.08.32-1-2.65-3.46-3.57-5.6-1.53-3.56-6.28-4.59-5.53-7.82a3.37,3.37,0,0,0-2.16-3.35c-.3-.07-.6-.07-.32-.71a2.85,2.85,0,0,0-1.81-3.91c-1.91-.53-.45-1.73-2.59-9.08a20.67,20.67,0,0,1-.71-2,2,2,0,0,1,.29-1.29c.82-1.67,3.19-5,4.33-9.09a20.36,20.36,0,0,0,.72-6.44c0-.52.42-.24,1.78-2.67.6-1.09-.9-1.49-.32-2.11,1.69-1.77,1.15-1.09,3.85-3.68.79-.77,2-2.2,3.09-3.26,3.3-3.31,4.33-3.64,6.11-6.69s4.27-3.23,3.15-8c-1.42-6-1.56-3.78-.13-5,.64-.57.3-1.15-.45-3.63a50.59,50.59,0,0,0-3.51-9.34c-1.62-4.72-2.07-7-3.37-8.59-.3-.36-.7-1.15-.92-1.34a2.05,2.05,0,0,1-.6-.92c-.19-.64-.6-1.18-.75-1.82,0-.08-.57-.88-.62-.94A3.16,3.16,0,0,0,128,49a10.4,10.4,0,0,0-3.2-1.58,11,11,0,0,1-3.37-1.58,11.39,11.39,0,0,0-2.64-1.37c-.37-.23,0-.32-.23-1.13a3.79,3.79,0,0,0-2.59-2c-1.46-.59-1.09-.62.45-4.65.54-1.41.49-1.71.77-1.45,1.26,1.15,2.27,0,3-.58a2.94,2.94,0,0,0,2.2-2.27c.49-1.54.63-2.95-.77-3.78-.16-.1-.27-.16-.24-.25.28-.86.83-.75,1.48-2.33,1.41-3.55,2.37.55,4.67-2a2,2,0,0,0,.45-2c0-.13,0-.23.13-.26a2.09,2.09,0,0,0,1.65-2.2c-.37-1.56-1.46-1.2-1.14-1.52a2.59,2.59,0,0,0,.45-1.79c-.25-1-1.17-.79-1-1.26a1.28,1.28,0,0,0-.17-1.35c-1.09-1.35-2-.53-2-1.24a2.59,2.59,0,0,0-.62-1.64,1.61,1.61,0,0,0-1.66-.56c-.26.06-.22-.19-.22-.47a2.21,2.21,0,0,0-3.16-1.88c-.68.3-.07-.43-1.3-.81s-1.31.25-1.5-.39a2.47,2.47,0,0,0-4.3-.83c-.25.49-.21-.47-1.28-.73a2,2,0,0,0-2.45,1.18c-.24.13-.37-.17-.54-.26a2.65,2.65,0,0,0-3.16.86c-.94,1.43-.17,2-.68,2.05a1.9,1.9,0,0,0-2,2.39c.17.58-.6.19-1.18.9a2.09,2.09,0,0,0,.81,3.05c.35.11,0,.56-.15,1.07a1,1,0,0,0,.39,1c1.43,1.07,1.94-.07,2.29.49a.58.58,0,0,1,0,.54A17.73,17.73,0,0,0,104,22.12c-.47,2,0,2.52-.4,2.86a6.47,6.47,0,0,0-1.5,3.65c0,1.44-1.13.58-1,2.95,0,.84.53.88.1,1.56-1,1.61.54,2.31.05,2.91-.88,1.09.17,1.75-.11,2.31-.79,1.56.45,2.28,0,2.52a4.14,4.14,0,0,0-2,2.54c-.19.68-.53.6-.9.83s-.66-.06-1.13,0c-2.24.32-1.62,1.52-3.31,2.5-.28.18-4.1,2.06-5,3.19-2.07,2.65-1.18,2.41-2.63,5.38C84.89,58,78.26,73.26,77.63,75.57c-.88,3.14.38,5,.9,6.16.27.83.47,1.89,2.15,7,1,3,3.51,8.34,3.89,9.24a44.69,44.69,0,0,1,2.05,5.59c.9,2.08,2.23,2.48,2.27,3.34.27,5.11.77,4.29,2,11,.33,1.81.66,2.28,2.47,6.31.24.56-3,6.35-4.85,9.94-1,2.05-2.55,1.86-4.21,7.61-1.73,6-2.59,5.36-4,9-3.1,8-7.84,11.54-7.14,13,2.55,5.09,5.67,5.32,4.64,7.14,0,0-3.16,5.49-3.35,5.36a5.11,5.11,0,0,0-1.48-.42,1,1,0,0,0-1.17.53,5.76,5.76,0,0,1-.73,1.2,2.35,2.35,0,0,1-1,.42c-.88.28-.54-1-1.93-.62-.61.2-.79-.64-1.75-.21-.76.35-1.18-.69-2.39.09-.45.25-1.6-.39-1.65-.43-.51-.6-4-2.16-5.42-1.35-.24.13-.58.54-.69.54-.89,0-1.79,2-1.11,3.24,1.75,3.19,3.91,4.9,8,7.7,2.9,1.94,10.71,11.14,12.57,7.07.84-1.56,3.54-5.32,3.93-6.15.66-1.37.26-1.48.49-1.76s1.71-.3,1.82-1.39a2.06,2.06,0,0,0-.73-1.79c-.34-.32-.49-.06-.08-.73,0,0,1.62-2.28,2.09-2.86,3.18-3.89,1.79-3.59,3.59-2.84a3.64,3.64,0,0,0,1.56.47c.85,0,1-.13,1.26-.88a15.09,15.09,0,0,1,2.24-4.23A98.62,98.62,0,0,1,97.39,161c.88-1.41,1.14-2.72,2.12-4.34.55-.92,1.69-1.82,2.14-2.74,1.13-2.32-.33-2.43.62-3.39a11.38,11.38,0,0,1,2.26-1.84c.3-.19.34-.19.53.09,2.35,3.52,3.44,1.77,4.75,5.12,1.81,4.64,3,3.68,4.34,6.52,2.32,5.06,2.82,5.19,3.73,7.07a1.17,1.17,0,0,0,1.05.77c1.37.07,1.22.58,4.47-1.15.45-.24,0-.32,5.1,5.32,1.29,1.43,1.35.68.35,2-2.1,2.8,1,2.2,1.41,4.68.1.66-1.2.49-.77,1.75.17.47-.22.56-.43,1.28-.06.22.09.43.15.64.11.37-.68.11,0,1.65.13.25-.15.64-.26.72-.44.35-.74.86-1.19,1.2-1.28,1-2.52,3.44-1.39,4.47.45.4-.49,2.15,2.76,2.26,2.71.09,7.2-2,8.65-4.78,2-3.87,1.41-5,4.27-7.31C143.87,179.54,145.64,178.82,144.89,177.58Zm-4.74-5c2.07,1.28,3.12,4.11,2.84,4.34-1.63,1.36-1.62,1.47-1.79,1.2C139.89,175.89,139.89,173,140.15,172.62Zm-1.39,8.14c-2.22,3.08-2.14,7.05-2.46,3.63-.25-2.52-.09-3.79,1.95-5.4a3.94,3.94,0,0,1,1.92-.51C141.18,179.12,140.28,178.65,138.76,180.76Zm-1.54-9.87c.6.92.45.49.62,1-.28,1.32-.08,1.15-2.18-1.8-2.95-4.14-2.6-3.38-3.07-4.23-1-1.79-1.69-1.09-.39-2C132.5,163.67,132.12,163.3,137.22,170.89Zm-2.63,1c-5-6.07-5.06-5.47-4.65-5.94A13.9,13.9,0,0,1,131,164.8c.35.34,5.82,8.1,6.29,8.5.15.13.08.24,0,.39C136.22,174.76,136.35,174,134.59,171.85Zm1.11,2.86c-.57.13-.41-.71-1.08-1.49-.89-1-.8-1-1.84-1.07-.39.09-.71.19-.84,0-3.48-4.1-3.86-4.1-3.65-4.36,1.41-1.73.41-1.79,4.47,2.8a28.85,28.85,0,0,1,2.69,3.4C135.75,174.42,136,174.65,135.7,174.71Zm-13.9-68.39c.32-.14.57-.09.61.3C122.35,107.88,120.52,106.88,121.8,106.32Zm-3.7-2.84c-.11.12-.15.1-.24,0-.49-.64-.66-.45,0-1.14a3.35,3.35,0,0,1,.83-.68C119.13,102.53,119.68,101.62,118.1,103.48Zm1.43-.79c.56.42.53.38.43.51-.91,1.12-1,1.3-1.09,1.28-.3-.28-.56-.4-.32-.73A8.21,8.21,0,0,1,119.53,102.69Zm-1.71-1h0c-.41.38-.73.78-.9.61s-.33-.42-.08-.73a1.69,1.69,0,0,1,.77-.7.57.57,0,0,1,.68.4A3.13,3.13,0,0,0,117.82,101.66Zm.73,3.55c-.28.79.38,1.51,1,2s-1.21,4-1.24,4.06-.28.08-.62-.15c-1.6-1-4.19-4.43-5.29-6-.92-1.3-.54,0-3.59.35-.24,0-1.55,0-1.54-.3,0-.6,1.39-.47,2.63-1.22s1.3-.4,1.68-.71a6.61,6.61,0,0,1,3.76-1.32.67.67,0,0,1,.67.11,2.06,2.06,0,0,1,.45.57C117.5,104.35,118.72,104.76,118.55,105.21Zm.94.51a.6.6,0,0,1,.51-.53.7.7,0,0,1,.47.64.6.6,0,0,1-.45.53C119.81,106.36,119.49,106,119.49,105.72Zm1.47-2.16c.69,0,.73,1.07-.06,1.11S120.19,103.6,121,103.56Zm.45,1.73a.34.34,0,1,1-.06.67C120.83,105.94,121,105.3,121.41,105.29Zm1.35.34c-.69,0-.35-1.08.15-1.08C123.59,104.57,123.46,105.66,122.76,105.63Zm16.39-24.44c1.28,5.32-.21,3.89-3.19,8.59a10,10,0,0,1-2.58,3.14c-.75.6-10.33,10.49-10.69,10.32-2.81-1.34-1.54.82-4-2.52-.19-.32,9.91-16.37,10.14-16.8.64-1.22.34-1.53-.29-3.22,0-.11,0-.15.11-.17,3.45-.51,6.58-2.24,8.86-2.93C138.25,77.39,138.08,76.66,139.15,81.19ZM111.41,79c-.11.62-.37,1.82.15,2.18a34.17,34.17,0,0,1-.53,4c-.11.58.7.86,1.11.84.94,0,1.3.08,1.22-.62-.18-1.61,0-2.18-.22-3.7-.11-.88,5.89,9.27,10,9.76.15,0,.15.09.09.22a1,1,0,0,1-.65.63,21.41,21.41,0,0,1-3.71,1.18c-3.14.73-3.85.52-5.49-1.15a19.72,19.72,0,0,1-3-5.11c-2-4.13-7.48-12.89-4.17-15.72.6-.52,1.77-1.88,1.67-1.13C107.52,72.82,111.56,78.12,111.41,79Zm-2.35-8.33c1.94,5.44,4.74,8.22,4,8.07-.94-.18-1,.07-1.5-.81-3.46-6.47-3.44-6.62-3.06-8.12.13-.49.71-.75.82-.66S108.76,69.8,109.06,70.64ZM126,87c.11.14.12.21,0,.4s-.89,1.52-1.05,1.66-.44.12-.87.12c-3.69.3-10.76-11.1-12.54-14.29-2.37-4.3-2.56-4.72-1.64-5.68s2.1.06,3,.66c1.74,1.08,2.9,3.27,4.3,5.19a28.77,28.77,0,0,1,2.65,3.25A84,84,0,0,0,126,87Zm-1.63-7.11a8.48,8.48,0,0,1,.81-2.61c.15.32.86,2.27,1,2.52.49,1.31,1,.25,1.56.81a4.63,4.63,0,0,1,.89,2.08c0,.66-.42,1.11-1.17,2.35-.94,1.55-.84,1.64-1.11,1.32C123.38,82.13,123.77,83.63,124.4,79.91Zm0,10c-.55.78-.55,1-1.15,1-2.87-.06-8-7.18-9.57-9.55-.28-.41,0-1.93.32-1.51,2.12,3,2.1,3.19,2.86,4,3.47,4,4.09,4.73,5.22,5.3a4.79,4.79,0,0,0,1.83.51C124.21,89.72,124.57,89.65,124.4,89.89Zm-12-4.45c-1.26.07-.86-.53-.67-1.73a12.51,12.51,0,0,1,.39-2.28c0-.27.51-.27.51,0a10.85,10.85,0,0,1,.15,2.46C112.73,85,113.27,85.38,112.44,85.44Zm.19-4.68c-.53,0-.78,0-.87-.21a2.76,2.76,0,0,1,0-1.27c0-.18.18-.24.55-.18.72.09,1,.23,1,.58a7.19,7.19,0,0,1-.19.92C113.07,80.78,113,80.77,112.63,80.76Zm-7.72-63.9c-.85.71-1.85,0-1.73-.4a2.05,2.05,0,0,1,.71-1.05c1-1-2-.09-1.65-2.2.2-1,1.18-.86,1.48-.92a.35.35,0,0,0,.21-.62c-.6-.6,0-1.71.77-1.92s1.6.72,1.3-.58c-.55-2.48,2.48-3.4,3.29-1.77.26.53.67.32.71-.18.21-1.92,2-2,2.67-.17.11.3.51.43.66,0,.35-.86.58-1.18,1.2-1.35a1.64,1.64,0,0,1,2.29,1.13c.06.19-.11.58-.15.77-.13.6.45.73.7.41s1-.58,1.82,0c.12.09.19.53.25.68.32.62.62-.06,1.5-.28a1.49,1.49,0,0,1,1.69,2.12c0,.11-.37.3-.09.6a.56.56,0,0,0,.62,0,1.37,1.37,0,0,1,2.2,1.21,2.07,2.07,0,0,1-.25,1.12c0,.27.4.27.55.15.49-.41,1.28-.13,1.75.4s.09.88-.23,1.33c-.15.21-.21.57.26.49s1.15.15,1.11.72a3.24,3.24,0,0,1-.6,1.65c-.19.41-.09.58.58.79,1.15.29.79,2.35-1,2.24-.7,0-.53.41-.25.69s.23.36.08,1a1.54,1.54,0,0,1-1.71,1.24c-.6-.13-1.26-.57-1.92-.42-.36.08-.64.27-1,.89-.7,1.24-.66,1.65-1.26,2.25-1.13,1.17-.57,1.24-1.11,1.32-2.33.34-2.3,2.22-3.1,1.67s.8-.73.45-2c-.19-.77.28-1.09.92-1.75.49-.49,0-.84-.32-1.18s.22-1.19.51-1.41c.65-.47.3-1.13-.25-1.71-.73-.74-.12-1.3.13-1.86.14-.32,0-.52-.37-.47-.13,0-.25.09-.4.11-.69.15-1.82-.28-1.63-.92.13-.38.17-.83-.21-1s-.36,1-1.94.45c-.62-.22-.34-.86-.47-1.13a.35.35,0,0,0-.45-.11,1.45,1.45,0,0,0-.26.17c-1,.75-1.09-.66-1.65-.47s.28.77-.53,1.41c-.49.38-1.3,0-1.73-.26s-.58-2-1.2-.7-2.07,1-2.13,0C105.71,16.56,105.53,16.35,104.91,16.86ZM103,27.48c.41-1.37,1.08-2.73,2.54-2.14.28.12.58-.15.26-.51s-1.17-.3-1.3-.47a5.72,5.72,0,0,1,.36-2.9c.19-.52,1.05-1.47,1.75-.37,0,.07.11.52.49.52.09,0,.28-.24.2-.65a1.48,1.48,0,0,0-1.84-1.09c-.09,0-.1-.06,0-.22s.32-.77.39-.93.06-.15.19-.08c1.16.55,2-.58,2.25-.56a3.58,3.58,0,0,0,1.86.9,1.6,1.6,0,0,0,1.62-.88c0-.13.11-.13.23-.11.73.13.92-.11,1.09,0a2,2,0,0,0,2.25,1.11s.3-.17.34,0c.21.88.85,1.07,1.65,1.28,1,.28-.39.58,1,2.2.36.45.17.26,0,.54-1.73,2.22.17,2.39-.35,2.88-1.56,1.52-.4,2-1,2.8-1.37,1.63,1,2.55,1.43,1.8,1.32-2.31,3.72-1.62,3.78-.41a5.11,5.11,0,0,1-.79,3c-.47.56-1.09.57-2.14,1.43-1.77,1.41-1.64-2.48-2.92.83-.11.28-.77-.34-.52-1.52a1.32,1.32,0,0,0-.47-1.32c-1.24-.79-1.51-.17-1.86-.73-.87-1.39-2-.64-2.37-1.35a2,2,0,0,0-1.19-.81,1.77,1.77,0,0,0-1,.15c-.81.24-.83-.66-2.13-.49-1.14.15-1.43-1-2.4-.11-.34.3-.49.18-1,.07S102.46,29.28,103,27.48ZM101.79,32c-.38-.81-.21-2,.92-2.07,1.16.19,1.16.3,1.58,0s.52-.49,1-.26a1.8,1.8,0,0,0,1.17.37c1.43-.2,1,.66,2.37.51.22,0,1.07-.45,1.58.36.22.37.35.66.88.62,1.6-.15,1.43,1.35,2.63,1.31a1,1,0,0,1,1,1.15c-.36,1.86,1.07,1.69.5,3.18-.88,2.33-1.09,2.65-1.84,2.82-1,.24-.46,1.78-2.16,1.43-.36-.07-1.09-.23-1.22,0-.25.45-.81.43-1.11.77-2.65-.1-2.11-1.43-3.4-.83-1.92.88-1.47-1.37-2.92-1.13-.24,0-.71.25-1-.09a1.28,1.28,0,0,1-.19-1.3c.77-1.07-.38-1.45,0-2.2s.64-1,.21-1.61C100.73,33.63,102.5,33.44,101.79,32ZM114,45.7c.17.09.17.17,0,.28-2.71,2.26-5,2.09-5,2.07-2.52,0-1.28.94-2.37,4-.41,1.15-.38,1-.66,1.39a.31.31,0,0,1-.13-.2h0c0-.08,0-.15,0-.24-.15-1.79-.75-1.58-.47-2.82.23-1.09.66-2.41-.26-2.9-1.24-.66-1-1.22-1.75-2.25-.19-.27.06-.25.53-.4s.77-.54,1.18-1.9c.13-.43.34-.34.58-.47a.71.71,0,0,1,1.06.15c.3.36.82.38,1.27.49,1.36.36,1.38,0,2.64-.77.33-.19,1.82.81,2.72-.81.43-.79,0-.34.77-.71C114.46,41.55,111.7,44.28,114,45.7Zm-15.36-1c.25-.12.25.21.59,1.42.41,1.52-.15,1.88.56,3,.53.9.06,1.56,1.62,3.19.45.45.71,0,.83-.6,0-.26.86-3.19,1.2-3.16a.57.57,0,0,1,.51.59c.05.36.52.2.52-.15.08-1-1.36-1.55-1.78-.59a9.15,9.15,0,0,0-1,3.2,3.41,3.41,0,0,1-1-1.86c-.11-.72-.77-1.19-.69-2.18.11-1.21-.57-2.1-.57-3,0-2.71,3.14-4.27,3.89-3.14.28.45-.71.15-1.24,1.67-.66,1.9,1,2,1.28,3.2.36,1.46,1.77,1.37,1.67,2.12-.53,3.95-.44,1.78.19,4.59a2.9,2.9,0,0,1,.06.41h0a3,3,0,0,0,.19.87c0,.15-.28,1.43.23,1.75.34.21.39-.34.3-.73-.28-1.19,1-.68,1.75-5.34a4.18,4.18,0,0,0,.09-.58c.15-1.2.66-.34,2.41-.74,3.23-.75,4.13-2.31,5.2-3.1a3,3,0,0,0,.74-1.6c.24-1.12-.57-1.24-1.47-1.69-.45-.32-.34-1,.25-.78l.23.1c4.06,2.1,2,1.81,3,4.61a2.69,2.69,0,0,1-.73,2.8,19.75,19.75,0,0,1-2.65,1.41A6,6,0,0,1,112.78,52c-.43.2-1.75,1.18-2.5,1.69-.41.28-.43-.53-.39-.7.22-.84-.21-1.14-.06-2.25.26-1.88-1.45-1.3-1.56-.72a.31.31,0,0,0,.17.32c.28.19.45-.39.73-.24s.06.37,0,.54a2.52,2.52,0,0,0,0,1.19c.2.69-.1,1,.07,1.78.4,1.9,2.35-.2,4.33-1.33,1-.58,1.26-1.24,2-1.6,1.9-1,2-.86,2.82-1.73,1.4-1.5-.3-4.26.66-3.77,3.3,1.67.4.89,6.31,3.11,1.85.68.44.55,0,.81-.19.08-.31.35.07.45s3.33-.84,4.23,2c.77,2.45,2.22,3.39,3.42,6,.4.88.9,2.69,2.24,6.75.26.81.51.66,2,4.3.33,1,.06.41,2.2,7.2a.28.28,0,0,1-.11.36,1.38,1.38,0,0,1-.25.19c-1.42.55-8.57,3.26-11.06,3.54-1.49.17-1.41-.67-1.87-2s-1.1-3.2-1.42-4.52a.6.6,0,0,0-.14-.31c-.77-.77-1-2.56-1.54-3.63a24,24,0,0,1-1.43-2.89c-.77-3.37-.19-3-1-5.06-1.17-2.91-.53-5.75-.47-7.18,0-.6-.47-.66-.53-.08-.94,7,.43,5.79,1,10.42a7.31,7.31,0,0,0,1,3.27,32.61,32.61,0,0,1,1.93,4.7c.18.49.7.73.91,1.82.32,1.58.67,1.71.37,2.24-2.64,4.76.52,8.67-4,2a44,44,0,0,0-3.26-4.25,26,26,0,0,0-3.71-4.51c-3.92-3.59-5.27-.41-5.72-1.33a44.86,44.86,0,0,0-2.63-3.84c-2.83-5.2-6.06-11.31-7.22-15.15C96.84,44.7,96.85,45.55,98.68,44.68ZM96.8,45a4.1,4.1,0,0,0-.1,1c.12,1.23.9,4.17,4.48,12,.44,1,1,1.49,3.31,6.11.51,1,2.57,4.24,3,5,.25.39-.13.37-1,1.18-.47.43-.09.64-2.09-3.06-1.33-2.4-7.21-13.49-8.69-18.89h0a7.3,7.3,0,0,1-.32-2C95.46,45.34,96,45.24,96.8,45Zm-7.89,60.59c-1.54-.9-1.86-3.25-2.54-4.93C84,94.7,82.78,92.77,81.26,88.48c-1.13-3.18-1.75-6-2.88-8.51-1.09-2.35.23-5.3.57-6.39.2-.62,1,.82,5,2.1s4.25,1.11,4.59,1.52c-.62,3.34-1,13.32-1.43,15.94-.11.59-.41,1-.47,1.6a8.52,8.52,0,0,1-.52,2.73.7.7,0,0,0,.33.77c3.14,2.27,2.22-2.33,2.47,7.14C88.93,105.44,88.93,105.51,88.91,105.57ZM87,97.86c-.6-.3,1.54-6.14,1.13-9.66,0-.11,1.89-24.09,3.59-29.34a12.26,12.26,0,0,1,1.35-3c.08-.39,1.6-5.45,1.07-5.79s-1.3,5.2-1.69,5.72C90.35,58.56,89,70.61,88.8,75.25c0,1.44.5,1.38-3.93.11a24.36,24.36,0,0,0-2.67-1S80.07,73.22,80,73.22c-.67-.35-.8-.45-.55-1,4.36-9.17,4.66-12.09,7.09-16.4,1.67-2.93.56-4.38,4.51-6.86,1.15-.71,3.74-2.48,3.85-2s.2.88.32,1.35h0c2.3,8.46,10.7,22.33,10.34,22.78-3.09,3.94,1.77,9.63.85,10.3-1.09.79-1.09,1.28-1.37,1-1-1.05-3-1.2-2.24-.32a9.16,9.16,0,0,1,2,1.22c.57.6.7.06,1.88-1.07.35-.34.36-.32,1.09,1.28,1.64,3.53,2.88,4.81,2.37,5.13-.92.6-.75.77-1.11.45-1.86-1.71-2.55-.77-1.88-.28a6.71,6.71,0,0,1,1.71,1.24c.55.64.81,0,1.58-.68.51-.5.47,1.45,3,3.88,3,2.83,7.33-.19,8.76-.1-.23,1-1.36,2.31-3.56,6.19-.82,1.44-.36-.05-2.4,1.8-.6.54-1.37-.39-3.89.94-1.24.64-.64.36-1.66.23a15,15,0,0,1-3.83-.64c-2.16-.79-5-1.13-5.53-2.22-1.28-2.48-.26-1.75-1.88-4.36-.62-1-1.34.07-1.71,1.16a13.26,13.26,0,0,1-.86,1.88c-.32.74-.83.62-1.83.38-1.24-.3-1,.17-2.2-.17C91.15,97.84,89.27,99,87,97.86Zm12.69-.09c-2.09-.25-1.94.24-1.22-1.73a1.66,1.66,0,0,1,.22-.3c.23-.34.23-.34.47,0S100.36,97.85,99.7,97.77ZM75.24,176.68a24.35,24.35,0,0,1,2.15-3.44,3.13,3.13,0,0,1,1.22.47c.24.21-2.26,4.38-2.5,4C75.42,176.76,75,177,75.24,176.68ZM78.08,179c-.26.36-2.14,3.09-2.35,3.35-.17-.19-.32-.44-.13-.6a2.43,2.43,0,0,0,.81-1.28,2.84,2.84,0,0,0,.09-1.84c0-.17.06-.21.25-.51,2.91-4.27,1.73-4.25,3.42-3.12C80.64,175.27,80.76,175.08,78.08,179Zm3.18-3c1.07,1.71,2-.45-1.86,5.13-1.77,2.54-1.47,2.24-2.16,2.31a1.1,1.1,0,0,1-.79-.21c-.58-.44-.7.08,3.74-6.33C80.88,175.83,81,175.57,81.26,175.93ZM69,178.11a6.33,6.33,0,0,1,.77,3.42c-.1.62-1,.6-1,.24a7.77,7.77,0,0,0-.52-3.48C68.32,177.87,68.87,177.86,69,178.11Zm-2.27-.4a.87.87,0,0,1,.86.32,6.61,6.61,0,0,1,.7,3.37c-.08.71-1.09.58-1,.13a5.74,5.74,0,0,0-.65-3.47C66.54,177.79,66.54,177.72,66.77,177.71ZM66,178a4.47,4.47,0,0,1,.74,3.1c-.12.33-.51.43-1,.28-.74-.23.09-1.53-1.31-3.42C64.27,177.73,65.25,177.15,66,178Zm-7.63-2.09c2.78.57,4.21,1.05,4.31,3.7.11.49.09.34.07.51-.26-.17-3.25-3.12-5.07-3.89C57.05,176,58,175.82,58.36,175.89Zm16.15,18.18c-.13,1.18-3.87-1.47-4.79-2.24-.35-.18-4.07-4-6.64-5.83-3-2.12-5.66-3.83-7.37-7.18-.22-.43.25-.75.64-.62,1.66.58,1.95,1.06,9.38,8.22C69.81,190.38,74.77,191.66,74.51,194.07Zm-1.11-2.95c-.46-.31-4.51-3-5-3.35-5.56-4.21-10-10.42-12.69-10.28.66-1.66,1.39-.92,2.78-.08,4.18,2.51,6.73,7.69,11.9,10.51,1.41.75,5,3.25,5.55,4.38C74.91,194.62,75.72,192.73,73.4,191.12ZM66.71,184c2.65.51,4,.51,5.56,3.16.25.41.49,1.45,0,1.07C72,188.07,65.81,184.33,66.71,184Zm12.71,2.61c-.29,1.32-2.92,4.76-2.94,4.81-.18.21-.15,0-1.82-1.44-1.28-1.11-1.6-1.13-1.26-1.39,3.29-2.6,4.38-2.37,5.4-2.45C79.47,186.23,79.53,186.17,79.42,186.64Zm1.84-2.46c.24,1-1,.94-1.41,1.37a6.07,6.07,0,0,0-4.29.77c-3.81,2.33-.9,1.56-4.36-1.58-.17-.13-1.61-.81-1.71-.86a10.75,10.75,0,0,0-1.82-.38,15.68,15.68,0,0,1-2-.26,9.88,9.88,0,0,1-2.26-2.52,13.58,13.58,0,0,0-.4-2.84,2,2,0,0,1,.79.17,4.71,4.71,0,0,1,1,2.73c0,1.69,1.48,1.09,2.2,1.58a1.21,1.21,0,0,0,1.18.11,2.07,2.07,0,0,0,1.13.26,1.45,1.45,0,0,0,.76-.39c.86-.89,0-2.89-.05-3.31s0-.43.44-.51a2,2,0,0,0,1.24-.75c.6-.64.28-1.52,1.48-1.17a3.82,3.82,0,0,1,2.3,1.53,2.49,2.49,0,0,1-1.41,3.74c-.68.22-1.43.26-1.77.39s-.13.7.41.62c2.22-.35,2-1,2.35-.37,1.22,2.52,3.74,1.14,4.91,1.56.24.09.62-.17.51-.38C80,182.64,81.13,183.6,81.26,184.18Zm-1.43-1.3c-.21.3-.15.49-.53.45-.69-.07-1.12.27-.32-.86,4.38-6.17,3.24-5.11,4.38-4.46C82.42,179.5,83.38,177.66,79.83,182.88Zm4.53-6.26c-.55.75-.64,1-.75.79A5.68,5.68,0,0,0,82.27,176c-.37-.22-.56-1-1.69-1.61-1.31-.72-1.26-1.32-2.37-1.56-.41-.08-.54-.15-.41-.36.43-.73.38-.87.71-.81a5.14,5.14,0,0,1,2.67,1.64C82.05,174.12,84.75,176.09,84.36,176.62Zm.6-.75c-2.1-2.16-2.12-2-2.25-2.07-4.31-4.58-5.33-.85-2.56-5.54.1-.17.19-.21.34-.13,2.87,1.56,2,2,3.81,3.19a7.66,7.66,0,0,1,2.26,2.2A13,13,0,0,1,85,175.87ZM104.3,147.6c-.58.85-1.8,1.3-2.91,2.67-.43.51-.28.88-.15,1.5.36,1.62-1,2.58-2,3.86a26.34,26.34,0,0,0-1.79,3.61c-.81,1.89-1.54,2.38-2.37,4.09,0,0-3.12,6.51-3.12,6.53-.64,1.56-1.88,3.25-2.25,4.15-.62,1.52-.66,1.69-.94,1.26-.75-1.2-3-4-4.27-4.59s-.92-1.63-3.21-2.8c-2.09-1.07-3.84-4.08-6.47-5.15-1.43-.6.42.48,6-11.16,2-4.18,3.36-6.23,3.89-8.24.15-.54.71-2.93.71-3,1.28-3.63,2.69-4,3.86-6.28,1-1.92,3.2-6.11,5.64-11,3-6,2.3-5.26,2.63-6.46A45.09,45.09,0,0,0,99.06,111a4.16,4.16,0,0,0,1.28,0,.29.29,0,0,0-.08-.56,29,29,0,0,1-3.12-.17,2.55,2.55,0,0,0-1.8.47c-.37.44-.08.68.34.47.67-.34.86-.45,1.52,0,1.09.68.86,2,.3,3.52-1.07,3-.73,2.67-1,3.49-.87,2.28-1.09,1.9-1.92,4.25-.17.49-.55,1.53-.73,1-.65-1.93-2.25-4.19-2.75-8.19-.13-1.37-.92-3.84-1.24-5.83-.36-2.29-.24-10.19-.24-10.22,0-.19.09-.23.26-.23,1.71-.11,2.22-.24,3.18.11.73.25.88-.2,1.84.08,1.11.32,2.14.39,2.59-.66.3-.68.19-.21,2.15-.21.62,0,.71.3,1.14,1.32s.81,1.07,4.06,2.07c5.74,1.82,6.25.79,4.91,1.67a11.87,11.87,0,0,1-2.52,1c-1.22.45-.6,2.22,2.18,1.75,2.48-.42,2.16-1.17,2.63-.53,1.22,1.65,3.52,4.91,6,6.45,1.62,1,2.09.35,1.5-.06-.31-.22-.79.13-.27-.81,1.88-3.55.34-3.57,2.28-3.12.46.09.28,0,.24,1.75-.13,4.94-2.11,8.07-4,11.65a39.75,39.75,0,0,0-2.61,5.81c-.45,1.09-1,2.3-1.35,3.16a28.23,28.23,0,0,1-2.69,5.28c-3,4.44-4.49,3.09-5.88,6.66C104.32,144.52,106.84,143.82,104.3,147.6Zm18.8,18.31a9.29,9.29,0,0,1-1.95,1.48,1.91,1.91,0,0,1-1.17.21c-1.65,0-1-.26-2.27-2.16-1.13-1.75-2.86-5.87-3.78-7-1.37-1.63-1.43-1.22-2.28-2.63-1.37-2.22-1.12-4.13-3.23-5-.86-.36-3.29-2.89-2.86-3.63.83-1.48,1.09-2,.36-3.59-.41-.9.79-2.55,1.49-3.23a24.14,24.14,0,0,0,2.76-2.41c3-2.93,6.13-12.42,6.37-11.88,2.54,6.06.72,10.08,3.46,10.66a2.07,2.07,0,0,1,1.5,2.58c-.69,2.8.68,1.37,1.62,2.76a2.62,2.62,0,0,1,.64,2.31c-.55,3.18,3.57,3.72,5.94,8.37.68,1.33,3,3.57,2.65,3.89a32.2,32.2,0,0,0-3.82,3.93C124.81,165.72,124.81,164.22,123.1,165.91Zm1.3.83c-.21-.29-.49-.55-.32-.68a14.32,14.32,0,0,0,4.4-4.12c1.71-2.46,1.37-2.07,2.27-.79C130.6,161.45,125.06,167.62,124.4,166.74Zm1.45,1.57c-.87-.86-.89-.84-.66-.95a12.84,12.84,0,0,0,3.25-2.79c.92-1,1.77-1.91,2.24-2.44s.48-.37.58-.21c.76,1.11,1,1,.32,1.64-2.54,2.15-1.55,1.71-4,3.89a3,3,0,0,1-1.51.92A.48.48,0,0,1,125.85,168.31Zm2.33,2.62c-2.45-2.86-1.71-1.43-.66-2.62.22-.26,3.72,3.9,3.85,4.12C130,173.2,130.65,173.81,128.18,170.93Zm.79,5.32c-.27-.32-.29-.64.75-1.71a4.58,4.58,0,0,1,3-1.62c1.06-.28,1.81,1.73,2.07,2.84.11.45,0,.92.32,1.16a.25.25,0,0,0,.17.06.2.2,0,0,0,.17-.24c0-.38.21-.72.09-1.11s2.84-.32,2.95-3.84a1.43,1.43,0,0,0-.5-1c-.53-.6.74-.69.89-.62.52.24.69,1.35.55,2.23a11,11,0,0,0,.79,5.53,4.49,4.49,0,0,0-4.38,3.1c-1,2.39.27,5.45.06,6-.36.94-.88-.92-2.56-1.19a9.46,9.46,0,0,0-3.55-.32c-.41,0-.11-.35-.09-.52s0-.32.2-.38a3.76,3.76,0,0,1,1.3-.11c1.83,0,2.38.71,2.71-.06s-.09-1,.17-1.33c.51-.65.19-1.32.37-1.53a1.32,1.32,0,0,0-.73-2,4.91,4.91,0,0,0-2.61-.24c-.36.13-.06-.53-.53-1.37S129.94,177.41,129,176.25Zm1.39,3.83a4.72,4.72,0,0,1,3.12,0,.73.73,0,0,1,.54.3c.3.59.08,1.07-.22.87a5.1,5.1,0,0,0-3.33-.34C130,181,129.81,180.38,130.36,180.08Zm-.27,1.56c.93-.45,3.83-.4,3.76.51-.11,1.24-.9-.13-3,.24-.25,0-1.13.19-1.11,0S129.76,181.79,130.09,181.64Zm-.05,1.54a5,5,0,0,1,3.16.1.52.52,0,0,1,.18.82c-.2.25-1.24-.28-2.25-.2-1.37.11-1.43.24-1.49-.08,0,0,0-.07,0-.11A.45.45,0,0,1,130,183.18Zm-.85,3a7.13,7.13,0,0,1,3.16.1,3.41,3.41,0,0,1,2.41,1.14c.75.74,1,.57-2.2,2.41a7,7,0,0,1-5.19.79C125.28,190.27,128.4,186.27,129.19,186.17Zm15-7.57a22.53,22.53,0,0,0-4.42,3.87c-1.78,2.29-1.41,6.41-6.07,8.72a7.82,7.82,0,0,1-5.79,1.15c-.77-.15-1.07-1.15-.67-1,2.76.74,5.09-.41,7.5-1.91,1.76-1.09,2.5-3.59,3.15-5.51,1.17-3.52,3.2-4.34,5.7-6.6.19-.17.32.06.47.28C144.42,178,144.55,178.26,144.21,178.6Z" fill="#000001"/></g></g></svg>